<?xml version="1.0" encoding="UTF-8"?>
<svg id="Layer_1" data-name="Layer 1" xmlns="http://www.w3.org/2000/svg" xmlns:xlink="http://www.w3.org/1999/xlink" width="117" height="28" viewBox="0 0 117 28">
  <defs>
    <filter id="drop-shadow-1" x="14.19" y="9.92" width="10.59" height="8.72" filterUnits="userSpaceOnUse">
      <feOffset dx=".2" dy="-.5"/>
      <feGaussianBlur result="blur" stdDeviation="1"/>
      <feFlood flood-color="#010101" flood-opacity=".75"/>
      <feComposite in2="blur" operator="in"/>
      <feComposite in="SourceGraphic"/>
    </filter>
  </defs>
  <g>
    <g>
      <polygon points="7.02 9 1.06 .67 12.08 .67 7.02 9" style="fill: #798278;"/>
      <polygon points="18.42 9.28 12.64 1.21 12.97 .67 23.29 .67 18.42 9.28" style="fill: #c3bfb6;"/>
      <polygon points="24.7 18.33 18.9 10.19 24.3 .67 34.8 .67 24.7 18.33" style="fill: #c3bfb6;"/>
      <polygon points="13.43 18.03 7.57 9.94 12.64 1.21 18.42 9.28 13.43 18.03" style="fill: #798278;"/>
      <polygon points="10.41 23.23 0 23.23 7.57 9.94 13.43 18.03 10.41 23.23" style="fill: #c3bfb6;"/>
    </g>
    <path d="M19.04,9.92l-4.85,8.61,9.94.11c.52.01.83-.58.53-1l-5.62-7.72Z" style="fill: #798278; filter: url(#drop-shadow-1);"/>
  </g>
  <text transform="translate(39.67 9.22)" style="fill: #c3bfb6; font-family: AllrounderMonumentTest-Medium, &apos;Allrounder Monument Test&apos;; font-weight: 500;"><tspan style="font-size: 10.72px;"><tspan x="0" y="0" style="letter-spacing: .15em;">P</tspan><tspan x="8.27" y="0" style="letter-spacing: .17em;">R</tspan><tspan x="18.18" y="0" style="letter-spacing: .15em;">EC</tspan><tspan x="36.02" y="0" style="letter-spacing: .13em;">I</tspan><tspan x="41.67" y="0" style="letter-spacing: .15em;">S</tspan><tspan x="49.3" y="0" style="letter-spacing: .13em;">I</tspan><tspan x="54.99" y="0" style="letter-spacing: .13em;">O</tspan><tspan x="65.79" y="0" style="letter-spacing: .15em;">N</tspan></tspan><tspan style="font-size: 12.02px;"><tspan x="0" y="12.26" style="letter-spacing: .47em;">V</tspan><tspan x="15.03" y="12.26" style="letter-spacing: .44em;">I</tspan><tspan x="25.15" y="12.26" style="letter-spacing: .43em;">S</tspan><tspan x="37.1" y="12.26" style="letter-spacing: .4em;">U</tspan><tspan x="51.83" y="12.26" style="letter-spacing: .47em;">AL</tspan></tspan></text>
</svg>